<svg width="517" height="297" viewBox="0 0 517 297" fill="none" xmlns="http://www.w3.org/2000/svg">
<path fill-rule="evenodd" clip-rule="evenodd" d="M0.670044 31.6667C0.670044 5.896 6.56267 0 32.3333 0H429C454.776 0 460.67 5.896 460.67 31.6667V55H507.33C520.215 55 515.67 65.4479 515.67 78.3333V218.333C515.67 231.219 520.215 241.667 507.33 241.667H460.67V265C460.67 290.776 454.776 296.67 429 296.67H32.3333C6.56267 296.67 0.670044 290.776 0.670044 265V31.6667ZM460.67 195H484V101.667H460.67V195ZM429 31.6667H32.3333V265H429V31.6667Z" fill="black"/>
</svg>
