<svg width="822" height="868" viewBox="0 0 822 868" fill="none" xmlns="http://www.w3.org/2000/svg">
<g clip-path="url(#clip0_1_120)">
<path d="M558.827 332.507C544.305 332.507 529.952 335.543 516.671 341.413L440.588 209.997C438.505 206.393 434.656 204.174 430.494 204.174H395.494C389.052 204.174 383.828 209.398 383.828 215.841C383.828 222.283 389.052 227.507 395.494 227.507H423.765L450.786 274.174H275.56L263.2 250.841H267.159C273.601 250.841 278.825 245.617 278.825 239.174C278.825 232.731 273.601 227.507 267.159 227.507H220.492C214.049 227.507 208.825 232.731 208.825 239.174C208.825 245.617 214.049 250.841 220.492 250.841H236.799L249.965 275.701C248.726 276.456 247.601 277.393 246.642 278.482C246.418 278.753 246.106 278.904 245.903 279.195L200.288 345.091L200.283 345.097C173.72 330.774 142.278 328.575 113.98 339.06C85.6829 349.545 63.2669 371.696 52.4496 399.867C41.6266 428.039 43.4496 459.503 57.4548 486.231C71.4601 512.966 96.2828 532.376 125.605 539.523C154.923 546.664 185.897 540.846 210.627 523.554C235.356 506.262 251.449 479.163 254.804 449.174H303.815C307.607 463.96 318.403 475.944 332.716 481.256C347.023 486.569 363.028 484.532 375.549 475.808C388.07 467.079 395.523 452.772 395.492 437.506C395.44 429.881 393.492 422.386 389.831 415.699L467.628 303.262L496.524 353.183C469.644 373.156 453.925 404.776 454.232 438.271C454.539 471.76 470.836 503.088 498.087 522.563C525.337 542.038 560.248 547.318 592.04 536.766C623.827 526.219 648.655 501.11 658.852 469.203C669.045 437.302 663.378 402.448 643.601 375.416C623.825 348.39 592.32 332.443 558.825 332.504L558.827 332.507ZM443.239 297.507L373.619 398.127C363.119 391.283 350.233 389.137 338.083 392.21L287.927 297.507L443.239 297.507ZM261.559 297.58L317.48 403.173C310.824 409.246 306.079 417.121 303.813 425.84H254.803C251.86 399.741 239.224 375.7 219.396 358.476L261.559 297.58ZM231.225 425.84H172.761L206.021 377.793C219.667 390.46 228.563 407.418 231.224 425.84H231.225ZM150.491 519.173C125.507 519.235 101.871 507.866 86.3293 488.304C70.7933 468.741 65.064 443.142 70.7773 418.82C76.4961 394.502 93.028 374.132 115.657 363.544C138.283 352.95 164.512 353.299 186.851 364.486L140.897 430.872C140.725 431.221 140.574 431.575 140.439 431.939C139.673 433.309 139.199 434.825 139.048 436.392C138.955 436.757 138.882 437.132 138.824 437.507C138.824 437.856 138.991 438.153 139.027 438.497C139.33 441.554 140.803 444.371 143.137 446.361C143.408 446.585 143.553 446.898 143.85 447.101C144.293 447.356 144.757 447.58 145.231 447.773C145.616 447.991 146.017 448.184 146.429 448.356C147.72 448.866 149.09 449.142 150.481 449.168H231.226C228.413 468.584 218.705 486.34 203.882 499.195C189.065 512.049 170.111 519.137 150.491 519.173ZM348.824 460.84C342.637 460.84 336.699 458.381 332.324 454.006C327.949 449.631 325.491 443.694 325.491 437.506C325.491 431.319 327.949 425.381 332.324 421.006C336.699 416.631 342.637 414.173 348.824 414.173C355.011 414.173 360.949 416.631 365.324 421.006C369.699 425.381 372.157 431.319 372.157 437.506C372.152 443.694 369.689 449.626 365.319 454.001C360.944 458.371 355.011 460.834 348.824 460.84ZM558.824 519.173C536.059 519.194 514.319 509.704 498.855 492.996C483.396 476.282 475.62 453.87 477.412 431.178C479.198 408.481 490.391 387.564 508.276 373.485L548.729 443.349C550.229 446.12 552.792 448.161 555.823 449.016C558.854 449.87 562.104 449.458 564.828 447.88C567.557 446.302 569.526 443.688 570.297 440.635C571.068 437.578 570.568 434.344 568.912 431.661L528.442 361.76C551.057 352.687 576.541 354.187 597.937 365.854C619.328 377.52 634.39 398.135 639.01 422.056C643.625 445.983 637.312 470.723 621.802 489.51C606.286 508.302 583.188 519.176 558.824 519.171L558.824 519.173Z" fill="#512DB4"/>
</g>
<defs>
<clipPath id="clip0_1_120">
<rect width="933.333" height="933.333" fill="white" transform="translate(-112)"/>
</clipPath>
</defs>
</svg>
