<svg width="711" height="434" viewBox="0 0 711 434" fill="none" xmlns="http://www.w3.org/2000/svg">
<path d="M573.651 160.533C561.704 160.533 549.755 162.027 538.558 165.012L478.823 8.95839C476.584 3.72919 471.355 0 465.386 0H418.345C410.876 0 404.157 5.97399 404.157 14.188C404.157 22.4016 410.131 28.376 418.345 28.376H455.678L481.814 96.324H275.734L269.76 80.6413C283.948 78.4017 296.64 76.1621 298.88 75.4121C304.854 74.6673 310.828 70.1829 310.828 63.4643V56.7455C310.828 53.7611 308.588 51.5163 305.599 51.5163H213.76C208.531 51.5163 204.802 55.2507 204.802 60.4747C204.802 60.4747 203.307 91.8347 216.75 89.5947C221.229 88.8499 230.187 87.3551 241.39 85.1155L250.348 108.261L202.561 176.954C183.149 166.501 160.749 160.527 136.853 160.527C61.4413 160.527 0.213257 221.757 0.213257 297.167C0.213257 372.579 61.4426 433.807 136.853 433.807C207.041 433.807 265.28 380.047 272.747 311.354H339.2C343.679 311.354 347.414 309.859 349.653 306.125L496 135.138L511.682 175.456C467.63 197.857 437.016 244.149 437.016 297.164C437.016 372.576 498.245 433.804 573.656 433.804C649.066 433.804 710.296 372.574 710.296 297.164C710.285 221.757 649.056 160.524 573.642 160.524L573.651 160.533ZM137.598 405.439C77.8634 405.439 29.3327 356.909 29.3327 297.174C29.3327 237.439 77.8634 188.909 137.598 188.909C155.519 188.909 171.947 193.388 186.879 200.856L125.65 288.96C122.666 293.44 122.666 298.669 124.905 303.892C127.145 308.372 132.374 311.361 137.598 311.361H245.119C237.65 364.372 192.103 405.44 137.598 405.44L137.598 405.439ZM164.478 282.986L210.025 216.533C228.691 233.705 241.385 256.85 245.118 282.986H164.478ZM273.489 282.986C269.754 247.147 252.582 215.789 226.447 193.387L263.035 140.371L319.035 282.985L273.489 282.986ZM344.426 269.549L286.931 123.949H468.371L344.426 269.549ZM573.653 405.442C513.918 405.442 465.387 356.911 465.387 297.177C465.387 256.109 488.533 220.27 522.133 202.349L560.211 302.401C562.451 308.375 567.68 311.359 573.649 311.359C575.144 311.359 577.383 311.359 578.878 310.614C586.347 307.63 590.076 299.416 587.092 292.693L549.013 192.641C557.226 190.401 565.44 189.656 574.398 189.656C634.133 189.656 682.664 238.187 682.664 297.922C682.669 357.656 633.388 405.443 573.653 405.443L573.653 405.442Z" fill="black"/>
</svg>
