<svg width="837" height="849" viewBox="0 0 837 849" fill="none" xmlns="http://www.w3.org/2000/svg">
<path d="M651.907 164.387C644.438 101.668 592.172 53.8813 527.959 53.8813C508.547 53.8813 490.625 58.3605 475.693 65.8292C451.797 25.5119 409.985 0.121185 359.215 0.121185C312.923 0.121185 272.6 24.0172 248.709 58.3612C297.991 61.3456 344.283 88.2252 372.657 128.549C390.579 122.575 408.496 119.591 426.417 119.591C502.579 119.591 566.791 174.845 580.231 249.512C632.496 274.897 666.845 328.657 666.845 388.392C704.179 367.485 728.075 327.163 728.075 280.871C728.07 228.6 696.711 183.803 651.908 164.387L651.907 164.387Z" fill="#512DB4"/>
<path d="M384.6 268.92C369.668 268.92 356.225 274.894 345.772 285.347C335.319 295.8 329.345 309.243 329.345 325.664C329.345 340.596 335.319 354.039 345.772 365.981C356.225 376.434 369.668 382.408 384.6 382.408C399.532 382.408 412.975 376.434 423.428 365.981C433.881 355.528 439.855 342.085 439.855 325.664C439.855 310.732 433.881 297.289 423.428 285.347C412.975 273.399 401.027 268.92 384.6 268.92Z" fill="#512DB4"/>
<path d="M566.787 258.467C559.318 188.279 499.589 133.029 427.907 133.029C407 133.029 386.095 137.509 368.172 146.467C341.292 101.664 293.505 71.8 238.251 71.8C154.625 71.8 85.9306 140.493 85.9306 222.627V236.064C41.1333 265.933 11.264 316.709 11.264 374.944C11.264 464.543 84.436 537.717 174.037 537.717C193.449 537.717 212.865 534.733 230.783 527.264C256.168 557.128 294.996 576.546 338.304 576.546C386.091 576.546 429.397 552.65 454.783 515.316C472.704 522.785 492.116 527.264 511.528 527.264C589.179 527.264 651.901 464.545 651.901 386.891C651.907 330.145 616.068 279.375 566.787 258.469V258.467ZM185.987 362.997C196.44 373.45 208.388 379.424 223.32 379.424C232.278 379.424 239.747 377.929 247.216 374.945C253.19 371.96 260.653 367.476 268.123 360.013L284.549 377.934C268.123 395.855 248.711 404.814 224.815 404.814C200.919 404.814 181.508 397.345 166.575 382.413C151.643 367.481 142.679 348.063 142.679 325.667C142.679 303.266 150.147 283.855 166.575 267.427C183.001 252.495 202.413 245.026 226.309 245.026C250.205 245.026 271.112 253.985 286.044 271.906L269.617 289.827C262.149 282.359 254.685 277.88 248.711 274.895C242.736 271.911 233.779 270.416 224.815 270.416C209.883 270.416 196.44 274.895 185.987 285.348C175.534 295.801 169.56 307.75 169.56 324.176C171.055 340.592 175.534 352.54 185.987 362.994V362.997ZM442.84 382.409C427.908 397.341 408.491 404.811 384.6 404.811C362.199 404.811 342.788 397.342 326.36 382.409C309.933 367.477 302.464 348.06 302.464 325.664C302.464 303.263 309.933 283.852 326.36 268.919C341.292 253.987 360.709 246.517 384.6 246.517C407.001 246.517 426.412 253.986 442.84 268.919C459.267 283.851 466.736 303.268 466.736 325.664C466.736 348.065 459.267 365.981 442.84 382.409ZM524.976 476.492H460.763V463.055L489.137 434.68C495.111 428.706 499.59 422.732 502.575 419.748C505.559 416.764 507.054 412.279 507.054 409.295C507.054 406.311 505.559 401.826 502.575 400.337C499.59 397.352 496.601 395.857 492.122 395.857C484.653 395.857 478.684 400.337 472.71 407.805L460.762 400.336C465.241 394.362 469.72 389.883 474.199 386.899C478.678 383.915 486.147 382.42 493.611 382.42C501.08 382.42 508.543 385.404 514.518 389.889C520.492 394.368 523.476 401.837 523.476 409.301C523.476 413.78 521.981 418.259 520.492 422.738C517.507 427.217 513.023 433.191 507.054 439.165L484.653 461.566H526.465L526.47 476.493L524.976 476.492Z" fill="#512DB4"/>
</svg>
