<svg width="778" height="904" viewBox="0 0 778 904" fill="none" xmlns="http://www.w3.org/2000/svg">
<path d="M484.64 311.36C520.479 353.923 539.895 409.923 533.171 471.147C521.223 581.652 428.64 668.267 317.384 671.253C190.452 674.988 85.9173 573.441 85.9173 447.253C85.9173 389.013 109.813 335.999 147.891 297.92L197.917 247.893C241.969 203.841 245.704 134.399 209.115 86.6133C205.381 81.3841 209.115 73.9206 215.834 74.6654C317.381 83.6238 397.274 168.744 397.274 273.279C397.274 324.8 391.3 374.825 379.353 423.359C377.858 429.333 384.582 434.557 389.806 431.572C433.858 409.171 465.218 366.614 471.191 315.094C472.696 309.125 480.91 306.141 484.644 311.365L484.64 311.36Z" fill="#512DB4"/>
</svg>
