<svg width="585" height="561" viewBox="0 0 585 561" fill="none" xmlns="http://www.w3.org/2000/svg">
<path fill-rule="evenodd" clip-rule="evenodd" d="M209 560.25H69.8294C62.1503 560.25 55.9159 554.284 55.9159 546.932V293.923H14.1659C8.54179 293.923 3.46273 290.672 1.30568 285.705C-0.851719 280.725 0.345798 275 4.32504 271.188L282.654 4.85804C288.083 -0.349733 296.908 -0.349733 302.337 4.85804L580.666 271.188C584.645 275 585.843 280.725 583.685 285.705C581.528 290.673 576.449 293.923 570.825 293.923H529.075V546.932C529.075 554.284 522.84 560.25 515.162 560.25H375.991C372.305 560.25 368.755 558.85 366.15 556.349C363.536 553.856 362.073 550.463 362.073 546.932V387.132C362.073 379.784 355.838 373.818 348.159 373.818H236.823C229.144 373.818 222.909 379.784 222.909 387.132V546.932C222.909 550.463 221.446 553.856 218.832 556.349C216.227 558.85 212.677 560.25 208.991 560.25H209Z" fill="white"/>
</svg>
