<svg width="744" height="883" viewBox="0 0 744 883" fill="none" xmlns="http://www.w3.org/2000/svg">
<path d="M136.173 364.027C103.892 364.027 77.6373 390.308 77.6373 422.605C77.6373 454.903 103.892 481.168 136.173 481.168C168.471 481.168 194.752 454.903 194.752 422.605C194.752 390.308 168.46 364.027 136.173 364.027ZM136.173 439.923C126.637 439.923 118.876 432.152 118.876 422.6C118.876 413.032 126.636 405.261 136.173 405.261C145.731 405.261 153.512 413.032 153.512 422.6C153.512 432.152 145.736 439.923 136.173 439.923Z" fill="white"/>
<path d="M537.453 71.7454C524.203 71.7454 513.412 82.5006 513.412 95.7187C513.412 108.953 524.193 119.729 537.453 119.729C550.646 119.729 561.407 108.959 561.407 95.7187C561.407 82.4999 550.651 71.7454 537.453 71.7454Z" fill="white"/>
<path d="M723.027 506.267H368.893V435.564H624.587C635.977 435.564 645.207 426.335 645.207 414.933V280.907C645.207 269.516 635.978 260.287 624.587 260.287H558.035V219.204C578.441 197.183 631.207 136.225 631.207 94.6107C631.207 42.9333 589.149 0.881348 537.457 0.881348C485.733 0.881348 443.651 42.9333 443.651 94.6107C443.651 136.168 496.317 197.017 516.801 219.121V280.897C516.801 292.288 526.031 301.517 537.421 301.517H603.973V394.324H348.28C336.889 394.324 327.66 403.553 327.66 414.933V526.887C327.66 538.267 336.889 547.496 348.28 547.496H702.413V646.808L156.813 646.813V610.611C182.064 583.537 268.215 486.684 268.215 425.237C268.215 352.44 208.996 293.227 136.204 293.227C63.4014 293.227 4.15735 352.445 4.15735 425.237C4.15735 486.675 90.3294 583.544 115.584 610.611V667.423C115.584 678.818 124.813 688.053 136.204 688.053L723.031 688.048C734.421 688.048 743.651 678.819 743.651 667.417V526.897C743.651 515.501 734.422 506.272 723.031 506.272L723.027 506.267ZM484.88 94.6133C484.88 65.6653 508.464 42.124 537.448 42.124C566.407 42.124 589.959 65.6653 589.959 94.6133C589.959 112.728 562.355 151.531 537.437 180.359C512.5 151.556 484.88 112.771 484.88 94.6133ZM45.3867 425.24C45.3867 375.188 86.1267 334.469 136.193 334.469C186.251 334.469 226.964 375.199 226.964 425.24C226.964 459.521 176.183 527.516 136.193 572.093C96.1987 527.515 45.3867 459.52 45.3867 425.24Z" fill="white"/>
</svg>
