<svg width="567" height="759" viewBox="0 0 567 759" fill="none" xmlns="http://www.w3.org/2000/svg">
<path d="M388.667 417.853H239.333C222.573 417.853 208.86 404.14 208.86 387.38V61.2866C208.86 44.5266 222.573 30.8133 239.333 30.8133H388.667C397.047 30.8133 403.907 23.954 403.907 15.5733C403.907 7.19305 397.047 0.333313 388.667 0.333313H239.333C205.807 0.333313 178.38 27.76 178.38 61.2866V387.38C178.38 420.907 205.807 448.333 239.333 448.333H388.667C397.047 448.333 403.907 441.474 403.907 433.093C403.907 424.713 397.047 417.859 388.667 417.859V417.853Z" fill="white"/>
<path d="M566.187 222.053C566.187 221.293 566.187 221.293 565.426 220.527C565.426 219.767 565.426 219.001 564.666 219.001C563.905 219.001 564.666 218.241 563.905 217.475C563.905 216.715 563.905 216.715 563.145 216.715V215.189L465.614 109.293C459.521 103.199 449.614 103.199 443.521 108.532C437.427 114.626 437.427 123.772 442.761 129.866L516.662 209.1H305.609C297.228 209.1 290.369 215.96 290.369 224.34C290.369 232.721 297.228 239.581 305.609 239.581H516.662L442.755 318.821C437.422 324.914 437.422 334.061 443.516 340.154C446.563 343.201 450.375 344.727 454.182 344.727C458.755 344.727 462.563 342.44 465.609 339.393L562.369 235.013V233.487C563.13 233.487 563.13 233.487 563.13 232.727C564.656 231.967 564.656 231.967 564.656 231.201C565.416 231.201 565.416 230.441 565.416 229.675C566.177 228.915 566.177 228.915 566.177 228.149C566.177 227.389 566.937 225.863 566.937 225.102C566.947 224.342 566.187 222.816 566.187 222.055L566.187 222.053Z" fill="white"/>
</svg>
