<svg width="837" height="880" viewBox="0 0 837 880" fill="none" xmlns="http://www.w3.org/2000/svg">
<g clip-path="url(#clip0_2_236)">
<path d="M280.4 486.16C285.379 503.581 292.843 521.004 302.801 538.425L275.421 565.805C262.979 578.248 262.979 585.717 272.932 595.669L300.312 623.049C310.265 633.002 320.224 633.002 330.176 620.56L360.04 590.696C374.972 598.165 389.904 605.628 404.842 608.117V642.961C404.842 660.382 409.822 665.362 424.754 665.362H464.577C479.509 665.362 484.489 660.383 484.489 642.961V608.117C499.421 603.138 514.353 598.164 529.292 590.696L559.156 620.56C571.598 633.002 579.068 633.002 589.02 623.049L616.4 595.669C626.353 585.716 626.353 578.248 613.91 565.805L584.046 535.941C593.999 521.009 601.467 503.587 606.447 483.676H643.781C658.713 483.676 663.693 478.697 663.693 461.275V426.431C663.693 409.009 658.714 404.029 643.781 404.029H606.447C601.468 389.097 596.494 374.165 589.026 359.227L616.406 331.847C628.849 319.404 628.849 311.935 618.896 301.983L594 277.092C584.047 267.139 574.088 267.139 564.136 279.582L539.245 304.472C524.313 294.519 506.89 287.051 486.98 282.071V244.738C486.98 227.316 482.001 222.336 467.068 222.336H427.245C412.313 222.336 407.333 227.315 407.333 244.738V279.582C389.912 284.561 372.489 292.024 355.068 301.983L330.177 277.092C315.245 264.65 307.776 264.65 295.333 277.092L267.953 304.472C258 314.425 258 321.894 270.443 334.336L297.823 361.716C290.354 376.648 282.891 391.58 280.401 406.519L240.579 406.514C225.647 406.514 220.667 411.493 220.667 428.915V463.759C220.667 481.18 225.646 486.16 240.579 486.16L280.4 486.16ZM379.952 446.337C379.952 409.004 409.816 381.624 444.665 381.624C481.999 381.624 509.379 411.488 509.379 446.337C509.379 481.181 479.515 511.051 444.665 511.051C407.332 511.051 379.952 483.671 379.952 446.337Z" fill="white"/>
</g>
<defs>
<clipPath id="clip0_2_236">
<rect width="933.333" height="933.333" fill="white" transform="translate(-97 -54)"/>
</clipPath>
</defs>
</svg>
