<svg width="625" height="751" viewBox="0 0 625 751" fill="none" xmlns="http://www.w3.org/2000/svg">
<path d="M487.76 243.84L373.369 170.517C373.369 170.517 427.577 87.34 443.557 61.6533C484.771 -4.20134 522.855 -9.42934 553.917 10.132C584.98 29.544 597.376 66.2827 556.157 132.137C539.73 158.424 487.76 243.84 487.76 243.84ZM128.027 664.96C127.73 665.408 127.282 665.856 126.98 666.304C123.693 671.533 122.501 677.95 123.1 683.626C123.396 686.465 123.995 689.152 124.74 691.095C125.037 691.991 125.485 692.887 125.636 693.486C125.933 694.085 125.933 694.382 125.933 694.382H126.829C127.428 694.382 128.469 694.382 129.365 694.085C131.454 693.788 134.146 693.189 136.834 692.142C142.36 690.199 147.438 686.168 150.719 680.944C151.016 680.496 151.167 679.897 151.464 679.449C188.948 676.017 258.833 607.023 319.611 509.956C346.788 466.497 479.397 258.023 479.397 258.023L365.455 183.955C365.455 183.955 234.788 395.115 207.015 439.461C146.389 536.675 114.733 629.715 128.025 664.955L128.027 664.96ZM620.667 102.72L613.646 98.3919C609.318 95.7044 602.896 97.9439 599.458 103.621L457.738 330.154C454.306 335.68 454.899 342.55 459.233 345.237L466.253 349.565C470.582 352.253 477.003 350.013 480.441 344.336L622.161 117.803C625.599 112.131 625 105.407 620.667 102.72Z" fill="white"/>
</svg>
