<svg width="15" height="15" viewBox="0 0 15 15" fill="none" xmlns="http://www.w3.org/2000/svg">
<path d="M13.9315 8.70304C13.8545 8.75978 13.7537 8.79566 13.6278 8.79566C13.523 8.79566 13.4369 8.76935 13.3662 8.72815C13.3603 8.76413 13.3488 8.79979 13.3345 8.83501C13.331 8.85479 13.3246 8.87381 13.3186 8.89262C13.3158 8.90882 13.3119 8.92415 13.3074 8.93958C12.8209 11.4933 10.426 13.4415 7.54194 13.4415C4.30756 13.4415 1.67594 10.9946 1.67594 7.98699C1.67594 4.97936 4.30744 2.53244 7.54194 2.53244C9.41903 2.53244 11.0897 3.35905 12.1635 4.63898L13.3556 3.53048C11.9724 1.97084 9.88092 0.973999 7.542 0.973999C3.38343 0.973999 0 4.1201 0 7.98699C0 11.8539 3.38343 15 7.542 15C11.2912 15 14.4085 12.4427 14.9858 9.10572C14.6275 8.99147 14.284 8.84156 13.9315 8.70284L13.9315 8.70304Z" fill="black"/>
<path d="M13.1148 5.14279H9.26C8.79703 5.14279 8.422 4.79384 8.422 4.36357C8.422 3.9333 8.79703 3.58435 9.26 3.58435H13.1148C13.5778 3.58435 13.9528 3.9333 13.9528 4.36357C13.9528 4.79384 13.5776 5.14279 13.1148 5.14279Z" fill="black"/>
<path d="M13.1147 5.14286C12.6518 5.14286 12.2767 4.79391 12.2767 4.36364V0.779221C12.2767 0.348952 12.6518 0 13.1147 0C13.5777 0 13.9527 0.348952 13.9527 0.779221V4.36364C13.9527 4.79391 13.5776 5.14286 13.1147 5.14286Z" fill="black"/>
<path d="M15 8.96098C15 9.39136 14.6249 9.7402 14.162 9.7402C13.6993 9.7402 13.324 9.39136 13.324 8.96098C13.324 8.5306 13.6993 8.18176 14.162 8.18176C14.6249 8.18176 15 8.5306 15 8.96098Z" fill="black"/>
</svg>
