<svg width="449" height="341" viewBox="0 0 449 341" fill="none" xmlns="http://www.w3.org/2000/svg">
<path d="M170.907 157.64H368.027C376.24 157.64 382.959 150.921 382.959 142.708V68.7866C382.959 60.573 376.24 53.8547 368.027 53.8547H170.907C162.693 53.8547 155.975 60.5734 155.975 68.7866V142.708C155.975 150.922 162.693 157.64 170.907 157.64ZM185.839 82.9733H353.092V127.025H185.839V82.9733ZM433.732 0.0933228H105.199C96.985 0.0933228 90.2666 6.81211 90.2666 15.0253V100.889L15.6 100.895C7.38636 100.895 0.667969 107.613 0.667969 115.827V280.84C0.667969 312.2 25.308 338.335 56.668 340.575H382.961C419.549 340.575 448.669 311.455 448.669 274.867V15.0265C448.669 6.81293 441.951 0.0945231 433.737 0.0945231L433.732 0.0933228ZM90.2653 280.84C90.2653 297.267 76.828 310.704 60.4013 310.704C43.9746 310.704 30.5373 297.267 30.5373 280.84L30.5321 130.76H90.2667L90.2653 280.84ZM418.799 274.866C418.799 294.278 402.372 310.705 382.96 310.705L112.667 310.71C117.896 301.751 120.88 291.298 120.88 280.846V29.9659H419.547V274.873L418.799 274.866ZM155.972 203.189C155.972 194.975 162.691 188.257 170.904 188.257H368.024C376.238 188.257 382.956 194.975 382.956 203.189C382.956 211.402 376.237 218.121 368.024 218.121H170.904C162.69 218.121 155.972 211.402 155.972 203.189ZM155.972 266.653C155.972 258.439 162.691 251.721 170.904 251.721H368.024C376.238 251.721 382.956 258.439 382.956 266.653C382.956 274.866 376.237 281.585 368.024 281.585L170.904 281.59C162.69 281.59 155.972 274.866 155.972 266.653Z" fill="white"/>
</svg>
