<svg width="634" height="866" viewBox="0 0 634 866" fill="none" xmlns="http://www.w3.org/2000/svg">
<path d="M265.8 23.1306H537.107V347.397C537.107 353.58 542.122 358.595 548.305 358.595C554.487 358.595 559.502 353.58 559.502 347.397L559.508 11.944C559.508 5.75651 554.492 0.746114 548.31 0.746114L265.803 0.740906C259.616 0.740906 254.605 5.7513 254.605 11.9388C254.605 18.1262 259.621 23.1418 265.803 23.1418L265.8 23.1306ZM186.94 209.531H424.007C430.189 209.531 435.205 204.515 435.205 198.333C435.205 192.145 430.189 187.135 424.007 187.135H186.94C180.753 187.135 175.742 192.145 175.742 198.333C175.737 204.515 180.747 209.531 186.94 209.531ZM186.94 266.041H424.007C430.189 266.041 435.205 261.026 435.205 254.843C435.205 248.656 430.189 243.646 424.007 243.646H186.94C180.753 243.646 175.742 248.656 175.742 254.843C175.737 261.021 180.747 266.041 186.94 266.041ZM186.94 322.541H424.007C430.189 322.541 435.205 317.526 435.205 311.343C435.205 305.156 430.189 300.146 424.007 300.146H186.94C180.753 300.146 175.742 305.156 175.742 311.343C175.737 317.526 180.747 322.541 186.94 322.541ZM354.94 356.64H186.94C180.753 356.64 175.742 361.656 175.742 367.838C175.742 374.02 180.753 379.036 186.94 379.036H354.94C361.127 379.036 366.138 374.02 366.138 367.838C366.138 361.661 361.127 356.64 354.94 356.64ZM308.585 413.14H186.94C180.753 413.14 175.742 418.156 175.742 424.338C175.742 430.52 180.753 435.536 186.94 435.536H308.585C314.773 435.536 319.783 430.52 319.783 424.338C319.783 418.161 314.773 413.14 308.585 413.14ZM540.452 454.504L462.873 545.931L413.3 506.493C408.477 502.639 401.42 503.441 397.565 508.285C393.711 513.118 394.518 520.171 399.357 524.02L457.409 570.222C459.461 571.863 461.925 572.655 464.378 572.655C467.56 572.655 470.716 571.306 472.925 568.707L557.524 468.999C561.524 464.28 560.951 457.218 556.232 453.212C551.503 449.207 544.445 449.795 540.451 454.504L540.452 454.504ZM505.837 357.947V65.6C505.837 59.4177 500.822 54.4021 494.64 54.4021H216.493C213.826 54.4021 211.243 55.3604 209.222 57.0844L115.253 137.355C112.758 139.485 111.326 142.589 111.326 145.876V571.516C111.326 577.698 116.336 582.714 122.523 582.714H335.11C336.246 582.714 337.318 582.495 338.36 582.182C364.204 632.985 416.871 667.937 477.667 667.937C563.864 667.942 633.987 597.806 633.987 511.604C633.987 435.036 578.612 371.27 505.831 357.95L505.837 357.947ZM321.331 511.6C321.331 528.616 324.154 544.96 329.206 560.303H133.726V151.036L220.622 76.8013H483.435V355.561C481.503 355.488 479.612 355.27 477.669 355.27C391.467 355.27 321.336 425.395 321.336 511.603L321.331 511.6ZM477.664 645.533C403.809 645.533 343.731 585.451 343.731 511.6C343.731 437.749 403.813 377.667 477.664 377.667C551.513 377.667 611.597 437.76 611.597 511.6C611.597 585.444 551.519 645.533 477.664 645.533Z" fill="white"/>
</svg>
